<mxfile host="Electron" agent="Mozilla/5.0 (X11; Linux x86_64) AppleWebKit/537.36 (KHTML, like Gecko) draw.io/28.1.2 Chrome/138.0.7204.251 Electron/37.5.1 Safari/537.36" version="28.1.2">
  <diagram name="Page-1" id="_ua-tc9vCiNMp5dRCIal">
    <mxGraphModel dx="1382" dy="872" grid="1" gridSize="10" guides="1" tooltips="1" connect="1" arrows="1" fold="1" page="1" pageScale="1" pageWidth="850" pageHeight="1100" math="0" shadow="0">
      <root>
        <mxCell id="0" />
        <mxCell id="1" parent="0" />
        <mxCell id="sbm1gv4ZaikPsXmlKyeg-27" value="" style="edgeStyle=orthogonalEdgeStyle;rounded=0;orthogonalLoop=1;jettySize=auto;html=1;entryX=0.5;entryY=0;entryDx=0;entryDy=0;" parent="1" source="sbm1gv4ZaikPsXmlKyeg-1" target="sbm1gv4ZaikPsXmlKyeg-9" edge="1">
          <mxGeometry relative="1" as="geometry" />
        </mxCell>
        <mxCell id="sbm1gv4ZaikPsXmlKyeg-1" value="&lt;div&gt;&amp;lt;&amp;lt;Abstract&amp;gt;&amp;gt;&lt;/div&gt;Host" style="swimlane;fontStyle=1;align=center;verticalAlign=top;childLayout=stackLayout;horizontal=1;startSize=40;horizontalStack=0;resizeParent=1;resizeParentMax=0;resizeLast=0;collapsible=1;marginBottom=0;whiteSpace=wrap;html=1;" parent="1" vertex="1">
          <mxGeometry x="340" y="220" width="190" height="174" as="geometry" />
        </mxCell>
        <mxCell id="sbm1gv4ZaikPsXmlKyeg-2" value="- HostIP: InetAddress&lt;div&gt;- Port: int&lt;/div&gt;&lt;div&gt;- Hostname: String&lt;/div&gt;" style="text;strokeColor=none;fillColor=none;align=left;verticalAlign=top;spacingLeft=4;spacingRight=4;overflow=hidden;rotatable=0;points=[[0,0.5],[1,0.5]];portConstraint=eastwest;whiteSpace=wrap;html=1;" parent="sbm1gv4ZaikPsXmlKyeg-1" vertex="1">
          <mxGeometry y="40" width="190" height="54" as="geometry" />
        </mxCell>
        <mxCell id="sbm1gv4ZaikPsXmlKyeg-3" value="" style="line;strokeWidth=1;fillColor=none;align=left;verticalAlign=middle;spacingTop=-1;spacingLeft=3;spacingRight=3;rotatable=0;labelPosition=right;points=[];portConstraint=eastwest;strokeColor=inherit;" parent="sbm1gv4ZaikPsXmlKyeg-1" vertex="1">
          <mxGeometry y="94" width="190" height="10" as="geometry" />
        </mxCell>
        <mxCell id="sbm1gv4ZaikPsXmlKyeg-4" value="+ getAddress(): InetAddress&lt;div&gt;+ getSocketAddress(): String&lt;/div&gt;&lt;div&gt;+ getPort(): int&lt;/div&gt;&lt;div&gt;+ getHostname(): String&lt;/div&gt;" style="text;strokeColor=none;fillColor=none;align=left;verticalAlign=top;spacingLeft=4;spacingRight=4;overflow=hidden;rotatable=0;points=[[0,0.5],[1,0.5]];portConstraint=eastwest;whiteSpace=wrap;html=1;" parent="sbm1gv4ZaikPsXmlKyeg-1" vertex="1">
          <mxGeometry y="104" width="190" height="70" as="geometry" />
        </mxCell>
        <mxCell id="sbm1gv4ZaikPsXmlKyeg-5" value="ServerHost" style="swimlane;fontStyle=1;align=center;verticalAlign=top;childLayout=stackLayout;horizontal=1;startSize=26;horizontalStack=0;resizeParent=1;resizeParentMax=0;resizeLast=0;collapsible=1;marginBottom=0;whiteSpace=wrap;html=1;" parent="1" vertex="1">
          <mxGeometry x="160" y="460" width="240" height="100" as="geometry" />
        </mxCell>
        <mxCell id="sbm1gv4ZaikPsXmlKyeg-6" value="- HostConectados: ArrayList&amp;lt;Host&amp;gt;" style="text;strokeColor=none;fillColor=none;align=left;verticalAlign=top;spacingLeft=4;spacingRight=4;overflow=hidden;rotatable=0;points=[[0,0.5],[1,0.5]];portConstraint=eastwest;whiteSpace=wrap;html=1;" parent="sbm1gv4ZaikPsXmlKyeg-5" vertex="1">
          <mxGeometry y="26" width="240" height="24" as="geometry" />
        </mxCell>
        <mxCell id="sbm1gv4ZaikPsXmlKyeg-7" value="" style="line;strokeWidth=1;fillColor=none;align=left;verticalAlign=middle;spacingTop=-1;spacingLeft=3;spacingRight=3;rotatable=0;labelPosition=right;points=[];portConstraint=eastwest;strokeColor=inherit;" parent="sbm1gv4ZaikPsXmlKyeg-5" vertex="1">
          <mxGeometry y="50" width="240" height="8" as="geometry" />
        </mxCell>
        <mxCell id="sbm1gv4ZaikPsXmlKyeg-8" value="+ getHostConectados(): ArrayList&amp;lt;Host&amp;gt;&lt;div&gt;+ getCantidadHosts(): int&lt;/div&gt;" style="text;strokeColor=none;fillColor=none;align=left;verticalAlign=top;spacingLeft=4;spacingRight=4;overflow=hidden;rotatable=0;points=[[0,0.5],[1,0.5]];portConstraint=eastwest;whiteSpace=wrap;html=1;" parent="sbm1gv4ZaikPsXmlKyeg-5" vertex="1">
          <mxGeometry y="58" width="240" height="42" as="geometry" />
        </mxCell>
        <mxCell id="sbm1gv4ZaikPsXmlKyeg-9" value="ClientHost" style="swimlane;fontStyle=1;align=center;verticalAlign=top;childLayout=stackLayout;horizontal=1;startSize=26;horizontalStack=0;resizeParent=1;resizeParentMax=0;resizeLast=0;collapsible=1;marginBottom=0;whiteSpace=wrap;html=1;" parent="1" vertex="1">
          <mxGeometry x="470" y="460" width="200" height="80" as="geometry" />
        </mxCell>
        <mxCell id="sbm1gv4ZaikPsXmlKyeg-11" value="" style="line;strokeWidth=1;fillColor=none;align=left;verticalAlign=middle;spacingTop=-1;spacingLeft=3;spacingRight=3;rotatable=0;labelPosition=right;points=[];portConstraint=eastwest;strokeColor=inherit;" parent="sbm1gv4ZaikPsXmlKyeg-9" vertex="1">
          <mxGeometry y="26" width="200" height="8" as="geometry" />
        </mxCell>
        <mxCell id="sbm1gv4ZaikPsXmlKyeg-12" value="&lt;div&gt;&lt;span style=&quot;background-color: transparent; color: light-dark(rgb(0, 0, 0), rgb(255, 255, 255));&quot;&gt;+ enviarMensaje(): boolean&lt;/span&gt;&lt;/div&gt;&lt;div&gt;+ enviarMensaje(String): boolean&lt;/div&gt;" style="text;strokeColor=none;fillColor=none;align=left;verticalAlign=top;spacingLeft=4;spacingRight=4;overflow=hidden;rotatable=0;points=[[0,0.5],[1,0.5]];portConstraint=eastwest;whiteSpace=wrap;html=1;" parent="sbm1gv4ZaikPsXmlKyeg-9" vertex="1">
          <mxGeometry y="34" width="200" height="46" as="geometry" />
        </mxCell>
        <mxCell id="sbm1gv4ZaikPsXmlKyeg-13" value="Network" style="swimlane;fontStyle=1;align=center;verticalAlign=top;childLayout=stackLayout;horizontal=1;startSize=26;horizontalStack=0;resizeParent=1;resizeParentMax=0;resizeLast=0;collapsible=1;marginBottom=0;whiteSpace=wrap;html=1;" parent="1" vertex="1">
          <mxGeometry x="1110" y="208" width="250" height="94" as="geometry" />
        </mxCell>
        <mxCell id="sbm1gv4ZaikPsXmlKyeg-14" value="- Conexiones: ArrayList&amp;lt;ArrayList&amp;lt;Router&amp;gt;&amp;gt;" style="text;strokeColor=none;fillColor=none;align=left;verticalAlign=top;spacingLeft=4;spacingRight=4;overflow=hidden;rotatable=0;points=[[0,0.5],[1,0.5]];portConstraint=eastwest;whiteSpace=wrap;html=1;" parent="sbm1gv4ZaikPsXmlKyeg-13" vertex="1">
          <mxGeometry y="26" width="250" height="34" as="geometry" />
        </mxCell>
        <mxCell id="sbm1gv4ZaikPsXmlKyeg-15" value="" style="line;strokeWidth=1;fillColor=none;align=left;verticalAlign=middle;spacingTop=-1;spacingLeft=3;spacingRight=3;rotatable=0;labelPosition=right;points=[];portConstraint=eastwest;strokeColor=inherit;" parent="sbm1gv4ZaikPsXmlKyeg-13" vertex="1">
          <mxGeometry y="60" width="250" height="8" as="geometry" />
        </mxCell>
        <mxCell id="sbm1gv4ZaikPsXmlKyeg-16" value="+ getConexiones(): String" style="text;strokeColor=none;fillColor=none;align=left;verticalAlign=top;spacingLeft=4;spacingRight=4;overflow=hidden;rotatable=0;points=[[0,0.5],[1,0.5]];portConstraint=eastwest;whiteSpace=wrap;html=1;" parent="sbm1gv4ZaikPsXmlKyeg-13" vertex="1">
          <mxGeometry y="68" width="250" height="26" as="geometry" />
        </mxCell>
        <mxCell id="sbm1gv4ZaikPsXmlKyeg-28" style="edgeStyle=orthogonalEdgeStyle;rounded=0;orthogonalLoop=1;jettySize=auto;html=1;exitX=0.5;exitY=0;exitDx=0;exitDy=0;entryX=0.5;entryY=1.014;entryDx=0;entryDy=0;entryPerimeter=0;startArrow=classic;startFill=1;endArrow=none;endFill=0;" parent="1" source="sbm1gv4ZaikPsXmlKyeg-5" target="sbm1gv4ZaikPsXmlKyeg-4" edge="1">
          <mxGeometry relative="1" as="geometry" />
        </mxCell>
        <mxCell id="_wKGAfRrMuPEUUYcMXcG-1" value="Router" style="swimlane;fontStyle=1;align=center;verticalAlign=top;childLayout=stackLayout;horizontal=1;startSize=26;horizontalStack=0;resizeParent=1;resizeParentMax=0;resizeLast=0;collapsible=1;marginBottom=0;whiteSpace=wrap;html=1;" vertex="1" parent="1">
          <mxGeometry x="680" y="220" width="250" height="120" as="geometry" />
        </mxCell>
        <mxCell id="_wKGAfRrMuPEUUYcMXcG-2" value="- ID_Router: int&lt;div&gt;- HostsConectados: ArrayList&amp;lt;Host&amp;gt;&lt;/div&gt;" style="text;strokeColor=none;fillColor=none;align=left;verticalAlign=top;spacingLeft=4;spacingRight=4;overflow=hidden;rotatable=0;points=[[0,0.5],[1,0.5]];portConstraint=eastwest;whiteSpace=wrap;html=1;" vertex="1" parent="_wKGAfRrMuPEUUYcMXcG-1">
          <mxGeometry y="26" width="250" height="44" as="geometry" />
        </mxCell>
        <mxCell id="_wKGAfRrMuPEUUYcMXcG-3" value="" style="line;strokeWidth=1;fillColor=none;align=left;verticalAlign=middle;spacingTop=-1;spacingLeft=3;spacingRight=3;rotatable=0;labelPosition=right;points=[];portConstraint=eastwest;strokeColor=inherit;" vertex="1" parent="_wKGAfRrMuPEUUYcMXcG-1">
          <mxGeometry y="70" width="250" height="8" as="geometry" />
        </mxCell>
        <mxCell id="_wKGAfRrMuPEUUYcMXcG-4" value="+ getHosts(): int&lt;div&gt;+ getHostsConectados(): String&lt;/div&gt;" style="text;strokeColor=none;fillColor=none;align=left;verticalAlign=top;spacingLeft=4;spacingRight=4;overflow=hidden;rotatable=0;points=[[0,0.5],[1,0.5]];portConstraint=eastwest;whiteSpace=wrap;html=1;" vertex="1" parent="_wKGAfRrMuPEUUYcMXcG-1">
          <mxGeometry y="78" width="250" height="42" as="geometry" />
        </mxCell>
        <mxCell id="_wKGAfRrMuPEUUYcMXcG-5" style="edgeStyle=orthogonalEdgeStyle;rounded=0;orthogonalLoop=1;jettySize=auto;html=1;exitX=1;exitY=0.5;exitDx=0;exitDy=0;entryX=0;entryY=0.5;entryDx=0;entryDy=0;endArrow=none;endFill=0;" edge="1" parent="1" source="sbm1gv4ZaikPsXmlKyeg-2" target="_wKGAfRrMuPEUUYcMXcG-2">
          <mxGeometry relative="1" as="geometry" />
        </mxCell>
        <mxCell id="_wKGAfRrMuPEUUYcMXcG-6" style="edgeStyle=orthogonalEdgeStyle;rounded=0;orthogonalLoop=1;jettySize=auto;html=1;exitX=1;exitY=0.5;exitDx=0;exitDy=0;entryX=0;entryY=0.5;entryDx=0;entryDy=0;endArrow=none;endFill=0;" edge="1" parent="1" source="_wKGAfRrMuPEUUYcMXcG-2" target="sbm1gv4ZaikPsXmlKyeg-14">
          <mxGeometry relative="1" as="geometry" />
        </mxCell>
        <mxCell id="_wKGAfRrMuPEUUYcMXcG-16" style="edgeStyle=orthogonalEdgeStyle;rounded=0;orthogonalLoop=1;jettySize=auto;html=1;exitX=0.5;exitY=0;exitDx=0;exitDy=0;entryX=0.5;entryY=1;entryDx=0;entryDy=0;startArrow=classic;startFill=1;endArrow=none;endFill=0;" edge="1" parent="1" source="_wKGAfRrMuPEUUYcMXcG-8" target="sbm1gv4ZaikPsXmlKyeg-9">
          <mxGeometry relative="1" as="geometry">
            <Array as="points">
              <mxPoint x="435" y="620" />
              <mxPoint x="570" y="620" />
            </Array>
          </mxGeometry>
        </mxCell>
        <mxCell id="_wKGAfRrMuPEUUYcMXcG-8" value="VoIPHost" style="swimlane;fontStyle=1;align=center;verticalAlign=top;childLayout=stackLayout;horizontal=1;startSize=26;horizontalStack=0;resizeParent=1;resizeParentMax=0;resizeLast=0;collapsible=1;marginBottom=0;whiteSpace=wrap;html=1;" vertex="1" parent="1">
          <mxGeometry x="337.5" y="660" width="200" height="100" as="geometry" />
        </mxCell>
        <mxCell id="_wKGAfRrMuPEUUYcMXcG-9" value="- NumTel: String" style="text;strokeColor=none;fillColor=none;align=left;verticalAlign=top;spacingLeft=4;spacingRight=4;overflow=hidden;rotatable=0;points=[[0,0.5],[1,0.5]];portConstraint=eastwest;whiteSpace=wrap;html=1;" vertex="1" parent="_wKGAfRrMuPEUUYcMXcG-8">
          <mxGeometry y="26" width="200" height="26" as="geometry" />
        </mxCell>
        <mxCell id="_wKGAfRrMuPEUUYcMXcG-10" value="" style="line;strokeWidth=1;fillColor=none;align=left;verticalAlign=middle;spacingTop=-1;spacingLeft=3;spacingRight=3;rotatable=0;labelPosition=right;points=[];portConstraint=eastwest;strokeColor=inherit;" vertex="1" parent="_wKGAfRrMuPEUUYcMXcG-8">
          <mxGeometry y="52" width="200" height="8" as="geometry" />
        </mxCell>
        <mxCell id="_wKGAfRrMuPEUUYcMXcG-11" value="+ getNumTel(): String&lt;div&gt;+ marcar(String): void&lt;/div&gt;" style="text;strokeColor=none;fillColor=none;align=left;verticalAlign=top;spacingLeft=4;spacingRight=4;overflow=hidden;rotatable=0;points=[[0,0.5],[1,0.5]];portConstraint=eastwest;whiteSpace=wrap;html=1;" vertex="1" parent="_wKGAfRrMuPEUUYcMXcG-8">
          <mxGeometry y="60" width="200" height="40" as="geometry" />
        </mxCell>
        <mxCell id="_wKGAfRrMuPEUUYcMXcG-17" style="edgeStyle=orthogonalEdgeStyle;rounded=0;orthogonalLoop=1;jettySize=auto;html=1;exitX=0.5;exitY=0;exitDx=0;exitDy=0;startArrow=classic;startFill=1;endArrow=none;endFill=0;" edge="1" parent="1" source="_wKGAfRrMuPEUUYcMXcG-12">
          <mxGeometry relative="1" as="geometry">
            <mxPoint x="570" y="590" as="targetPoint" />
            <Array as="points">
              <mxPoint x="700" y="620" />
              <mxPoint x="571" y="620" />
            </Array>
          </mxGeometry>
        </mxCell>
        <mxCell id="_wKGAfRrMuPEUUYcMXcG-12" value="PCHost" style="swimlane;fontStyle=1;align=center;verticalAlign=top;childLayout=stackLayout;horizontal=1;startSize=26;horizontalStack=0;resizeParent=1;resizeParentMax=0;resizeLast=0;collapsible=1;marginBottom=0;whiteSpace=wrap;html=1;" vertex="1" parent="1">
          <mxGeometry x="602.5" y="660" width="200" height="90" as="geometry" />
        </mxCell>
        <mxCell id="_wKGAfRrMuPEUUYcMXcG-13" value="- NombreHost: String" style="text;strokeColor=none;fillColor=none;align=left;verticalAlign=top;spacingLeft=4;spacingRight=4;overflow=hidden;rotatable=0;points=[[0,0.5],[1,0.5]];portConstraint=eastwest;whiteSpace=wrap;html=1;" vertex="1" parent="_wKGAfRrMuPEUUYcMXcG-12">
          <mxGeometry y="26" width="200" height="26" as="geometry" />
        </mxCell>
        <mxCell id="_wKGAfRrMuPEUUYcMXcG-14" value="" style="line;strokeWidth=1;fillColor=none;align=left;verticalAlign=middle;spacingTop=-1;spacingLeft=3;spacingRight=3;rotatable=0;labelPosition=right;points=[];portConstraint=eastwest;strokeColor=inherit;" vertex="1" parent="_wKGAfRrMuPEUUYcMXcG-12">
          <mxGeometry y="52" width="200" height="8" as="geometry" />
        </mxCell>
        <mxCell id="_wKGAfRrMuPEUUYcMXcG-15" value="+ conectarHost(servSock): void" style="text;strokeColor=none;fillColor=none;align=left;verticalAlign=top;spacingLeft=4;spacingRight=4;overflow=hidden;rotatable=0;points=[[0,0.5],[1,0.5]];portConstraint=eastwest;whiteSpace=wrap;html=1;" vertex="1" parent="_wKGAfRrMuPEUUYcMXcG-12">
          <mxGeometry y="60" width="200" height="30" as="geometry" />
        </mxCell>
      </root>
    </mxGraphModel>
  </diagram>
</mxfile>
